P1
# Created by GIMP version 2.10.10 PNM plug-in
5 106
0111010001100111010111001100010111000000000000000000000001000110000100
0010000100001000111000000000000000000000011101000100001001100100010000
1111100000000000000000000111110000100010001100000110001011100000000000
0000000000000100011001010100101111100010000100000000000000000000011111
1000011110000010000110001011100000000000000000000000111010001000011110
1000110001011100000000000000000000011111000010001000100010000100001000
0000000000000000000001110100011000101110100011000101110000000000000000
0000001110100011000101111000010001011100